<?xml version="1.0" encoding="UTF-8"?>
<svg id="Layer_1" xmlns="http://www.w3.org/2000/svg" xmlns:xlink="http://www.w3.org/1999/xlink" version="1.1" viewBox="0 0 319 46">
  <!-- Generator: Adobe Illustrator 29.8.0, SVG Export Plug-In . SVG Version: 2.1.1 Build 160)  -->
  <defs>
    <style>
      .st0 {
        fill: none;
      }

      .st1 {
        clip-path: url(#clippath);
      }
    </style>
    <clipPath id="clippath">
      <rect class="st0" y="0" width="318.09" height="45.41"/>
    </clipPath>
  </defs>
  <g class="st1">
    <g>
      <path d="M155.86,10.47v.1c-1.01.86-1.77,2.73-2.93,5.76l-7.26,20.43-.88-2.12-8.19-18c-1.06-2.53-2.28-5.31-3.29-6.07v-.1h12.14v.1c-2.93,1.01-2.83,2.68-1.82,5.31l3.89,10.06,3.64-9.86c1.01-2.83,1.06-4.6-1.67-5.51v-.1h6.37Z"/>
      <path d="M51.43.35v.1c-1.67,1.26-3.03,3.64-4.35,7.03l-11.23,28.98h-.2l-9.35-22.86-9.25,22.86h-.2L5.21,8.24C3.29,3.64,1.72,1.47,0,.46v-.1h15.88v.1c-2.78,1.06-3.99,3.13-2.63,6.57l6.73,17.24,5.31-13.25-1.16-2.78c-1.92-4.6-3.49-6.78-5.21-7.79v-.1h15.98v.1c-2.83,1.06-4.04,3.08-2.68,6.57l6.52,16.94,6.42-16.99c1.31-3.44-.05-5.51-2.73-6.52v-.1h9Z"/>
      <path d="M73.33,35.65v.1h-12.14v-.1c2.02-1.21,2.28-3.39,2.28-6.07v-13.15c0-1.62-.61-3.19-2.28-3.19-.91,0-2.12.35-3.69,1.47v14.87c0,2.68.15,4.85,2.23,6.07v.1h-12.09v-.1c2.58-1.37,2.68-3.39,2.68-6.07V6.52c0-2.68-.1-4.7-2.68-6.07v-.1h9.86v12.74c2.02-1.26,5.36-2.93,8.6-2.93s4.55,1.97,4.55,4.2v15.22c0,2.68.1,4.7,2.68,6.07Z"/>
      <path d="M74.19,35.65c2.58-1.37,2.68-3.39,2.68-6.07v-12.95c0-2.68-.1-4.7-2.68-6.07v-.1h9.86v19.12c0,2.68.1,4.7,2.68,6.07v.1h-12.54v-.1ZM76.21,3.84C76.21,1.72,78.03,0,80.26,0s4.05,1.72,4.05,3.84-1.82,3.89-4.05,3.89-4.05-1.72-4.05-3.89Z"/>
      <path d="M310,13.85c0-2.12,1.82-3.84,4.05-3.84s4.05,1.72,4.05,3.84-1.82,3.89-4.05,3.89-4.05-1.72-4.05-3.89Z"/>
      <path d="M135.96,41.52c0-2.12,1.82-3.84,4.05-3.84s4.05,1.72,4.05,3.84-1.82,3.89-4.05,3.89-4.05-1.72-4.05-3.89Z"/>
      <path d="M89.31,34.89l-.61-10.21h.05c1.72,3.39,5.06,9.81,10.77,9.81,2.28,0,4.25-1.06,4.25-3.59s-3.03-3.49-7.58-5.06c-6.02-2.07-7.59-4.35-7.59-7.94,0-5.56,4.8-7.89,9.46-7.89,2.68,0,5.71.71,8.6,1.47l.4,8.29h-.1c-2.98-5.01-5.76-7.99-9.61-7.99-2.28,0-4.15,1.31-4.15,3.29,0,2.23,2.53,3.03,6.68,4.45,5.11,1.72,8.44,3.84,8.44,8.75,0,5.97-4.96,8.04-9.3,8.04-3.54,0-7.23-.91-9.71-1.42Z"/>
      <path d="M135.12,35.75h-11.23v-.1c2.07-1.37,1.47-3.34-.25-6.07l-4.25-7.89v7.89c0,2.68.1,4.7,2.68,6.07v.1h-12.54v-.1c2.58-1.37,2.68-3.39,2.68-6.07V6.52c0-2.68-.1-4.7-2.68-6.07v-.1h9.86v20.94l5.87-5.76c2.33-2.33,1.87-3.74-1.31-4.96v-.1h11.78v.1c-1.57.56-4.4,1.82-7.94,5.11l-2.93,2.73,10.26,17.34Z"/>
      <path d="M186.2,25.94c0,6.17-4.4,9.81-11.02,9.81h-18.05v-.1c2.33-1.06,3.79-3.39,3.79-6.07V6.52c0-2.68-1.47-5.01-3.79-6.07v-.1h18.36c5.26,0,8.85,3.19,8.85,7.74,0,3.59-2.38,6.88-7.23,8.24,6.02,1.31,9.1,4.91,9.1,9.61h-.01ZM168.81,2.02v13.6h2.73c2.73,0,5.56-.86,5.56-5.82s-3.34-7.79-7.03-7.79h-1.26ZM178.36,26.95c0-5.16-3.24-9.51-8.55-9.51h-1.01v16.54h3.34c3.14,0,6.22-1.16,6.22-7.03Z"/>
      <path d="M188.08,35.65c2.58-1.37,2.68-3.39,2.68-6.07V6.52c0-2.68-.1-4.7-2.68-6.07v-.1h9.86v29.23c0,2.68.1,4.7,2.68,6.07v.1h-12.54v-.1Z"/>
      <path d="M222.76,27.31l.1.05c-1.26,4.1-4.7,8.85-10.06,8.85s-11.02-4.1-11.02-13.05,6.32-13.15,11.68-13.15,9.56,4.1,9.81,11.73h-14.77c.51,6.47,4.25,8.8,7.53,8.8,2.12,0,4.65-1.21,6.73-3.24h0ZM208.45,20.02h8.14c-.35-5.11-2.07-8.6-4.15-8.6-1.67,0-3.94,2.63-4,8.6h0Z"/>
      <path d="M249.87,35.65v.1h-12.14v-.1c2.02-1.21,2.28-3.39,2.28-6.07v-13.15c0-1.62-.61-3.19-2.28-3.19-.91,0-2.12.35-3.69,1.47v14.87c0,2.68.15,4.85,2.23,6.07v.1h-12.09v-.1c2.58-1.37,2.68-3.39,2.68-6.07v-12.95c0-2.68-.1-4.7-2.68-6.07v-.1h9.86v2.63c2.02-1.26,5.36-2.93,8.6-2.93s4.55,1.97,4.55,4.2v15.22c0,2.68.1,4.7,2.68,6.07Z"/>
      <path d="M275.21,35.65v.1h-11.73c-7.28,0-12.59-3.64-12.59-11.88,0-9.51,7.13-13.4,13.3-13.4h1.16v-3.94c0-2.68-.1-4.7-2.68-6.07v-.1h9.86v29.23c0,2.68.1,4.7,2.68,6.07h0ZM265.34,34.28V11.93h-1.42c-3.14,0-5.66,1.01-5.66,8.24,0,7.94,3.19,14.11,6.98,14.11h.1Z"/>
      <path d="M297.25,27.31l.1.05c-1.26,4.1-4.7,8.85-10.06,8.85s-11.02-4.1-11.02-13.05,6.32-13.15,11.68-13.15,9.56,4.1,9.81,11.73h-14.77c.51,6.47,4.25,8.8,7.53,8.8,2.12,0,4.65-1.21,6.73-3.24h0ZM282.94,20.02h8.14c-.35-5.11-2.07-8.6-4.15-8.6-1.67,0-3.94,2.63-4,8.6h.01Z"/>
      <path d="M308.53,29.58c0,2.68.1,4.7,2.68,6.07v.1h-12.54v-.1c2.58-1.37,2.68-3.39,2.68-6.07v-12.95c0-2.68-.1-4.7-2.68-6.07v-.1h9.86v19.12Z"/>
    </g>
  </g>
</svg>