<svg width="319" height="46" viewBox="0 0 319 46" fill="none" xmlns="http://www.w3.org/2000/svg">
<g clip-path="url(#clip0_1_19)">
<path d="M155.86 10.47V10.57C154.85 11.43 154.09 13.3 152.93 16.33L145.67 36.76L144.79 34.64L136.6 16.64C135.54 14.11 134.32 11.33 133.31 10.57V10.47H145.45V10.57C142.52 11.58 142.62 13.25 143.63 15.88L147.52 25.94L151.16 16.08C152.17 13.25 152.22 11.48 149.49 10.57V10.47H155.86Z" fill="white"/>
<path d="M51.43 0.350006V0.450006C49.76 1.71001 48.4 4.09001 47.08 7.48001L35.85 36.46H35.65L26.3 13.6L17.05 36.46H16.85L5.21 8.24001C3.29 3.64001 1.72 1.47001 0 0.460006V0.360006H15.88V0.460006C13.1 1.52001 11.89 3.59001 13.25 7.03001L19.98 24.27L25.29 11.02L24.13 8.24001C22.21 3.64001 20.64 1.46001 18.92 0.450006V0.350006H34.9V0.450006C32.07 1.51001 30.86 3.53001 32.22 7.02001L38.74 23.96L45.16 6.97001C46.47 3.53001 45.11 1.46001 42.43 0.450006V0.350006H51.43Z" fill="white"/>
<path d="M73.33 35.65V35.75H61.19V35.65C63.21 34.44 63.47 32.26 63.47 29.58V16.43C63.47 14.81 62.86 13.24 61.19 13.24C60.28 13.24 59.07 13.59 57.5 14.71V29.58C57.5 32.26 57.65 34.43 59.73 35.65V35.75H47.64V35.65C50.22 34.28 50.32 32.26 50.32 29.58V6.52001C50.32 3.84001 50.22 1.82001 47.64 0.450006V0.350006H57.5V13.09C59.52 11.83 62.86 10.16 66.1 10.16C69.34 10.16 70.65 12.13 70.65 14.36V29.58C70.65 32.26 70.75 34.28 73.33 35.65Z" fill="white"/>
<path d="M74.19 35.65C76.77 34.28 76.87 32.26 76.87 29.58V16.63C76.87 13.95 76.77 11.93 74.19 10.56V10.46H84.05V29.58C84.05 32.26 84.15 34.28 86.73 35.65V35.75H74.19V35.65ZM76.21 3.84C76.21 1.72 78.03 0 80.26 0C82.49 0 84.31 1.72 84.31 3.84C84.31 5.96 82.49 7.73 80.26 7.73C78.03 7.73 76.21 6.01 76.21 3.84Z" fill="white"/>
<path d="M310 13.85C310 11.73 311.82 10.01 314.05 10.01C316.28 10.01 318.1 11.73 318.1 13.85C318.1 15.97 316.28 17.74 314.05 17.74C311.82 17.74 310 16.02 310 13.85Z" fill="white"/>
<path d="M135.96 41.52C135.96 39.4 137.78 37.68 140.01 37.68C142.24 37.68 144.06 39.4 144.06 41.52C144.06 43.64 142.24 45.41 140.01 45.41C137.78 45.41 135.96 43.69 135.96 41.52Z" fill="white"/>
<path d="M89.31 34.89L88.7 24.68H88.75C90.47 28.07 93.81 34.49 99.52 34.49C101.8 34.49 103.77 33.43 103.77 30.9C103.77 28.37 100.74 27.41 96.19 25.84C90.17 23.77 88.6 21.49 88.6 17.9C88.6 12.34 93.4 10.01 98.06 10.01C100.74 10.01 103.77 10.72 106.66 11.48L107.06 19.77H106.96C103.98 14.76 101.2 11.78 97.35 11.78C95.07 11.78 93.2 13.09 93.2 15.07C93.2 17.3 95.73 18.1 99.88 19.52C104.99 21.24 108.32 23.36 108.32 28.27C108.32 34.24 103.36 36.31 99.02 36.31C95.48 36.31 91.79 35.4 89.31 34.89Z" fill="white"/>
<path d="M135.12 35.75H123.89V35.65C125.96 34.28 125.36 32.31 123.64 29.58L119.39 21.69V29.58C119.39 32.26 119.49 34.28 122.07 35.65V35.75H109.53V35.65C112.11 34.28 112.21 32.26 112.21 29.58V6.52001C112.21 3.84001 112.11 1.82001 109.53 0.450006V0.350006H119.39V21.29L125.26 15.53C127.59 13.2 127.13 11.79 123.95 10.57V10.47H135.73V10.57C134.16 11.13 131.33 12.39 127.79 15.68L124.86 18.41L135.12 35.75Z" fill="white"/>
<path d="M186.2 25.94C186.2 32.11 181.8 35.75 175.18 35.75H157.13V35.65C159.46 34.59 160.92 32.26 160.92 29.58V6.52001C160.92 3.84001 159.45 1.51001 157.13 0.450006V0.350006H175.49C180.75 0.350006 184.34 3.54001 184.34 8.09001C184.34 11.68 181.96 14.97 177.11 16.33C183.13 17.64 186.21 21.24 186.21 25.94H186.2ZM168.81 2.02001V15.62H171.54C174.27 15.62 177.1 14.76 177.1 9.80001C177.1 4.84001 173.76 2.01001 170.07 2.01001H168.81V2.02001ZM178.36 26.95C178.36 21.79 175.12 17.44 169.81 17.44H168.8V33.98H172.14C175.28 33.98 178.36 32.82 178.36 26.95Z" fill="white"/>
<path d="M188.08 35.65C190.66 34.28 190.76 32.26 190.76 29.58V6.52001C190.76 3.84001 190.66 1.82001 188.08 0.450006V0.350006H197.94V29.58C197.94 32.26 198.04 34.28 200.62 35.65V35.75H188.08V35.65Z" fill="white"/>
<path d="M222.76 27.31L222.86 27.36C221.6 31.46 218.16 36.21 212.8 36.21C207.44 36.21 201.78 32.11 201.78 23.16C201.78 14.21 208.1 10.01 213.46 10.01C218.82 10.01 223.02 14.11 223.27 21.74H208.5C209.01 28.21 212.75 30.54 216.03 30.54C218.15 30.54 220.68 29.33 222.76 27.3V27.31ZM208.45 20.02H216.59C216.24 14.91 214.52 11.42 212.44 11.42C210.77 11.42 208.5 14.05 208.44 20.02H208.45Z" fill="white"/>
<path d="M249.87 35.65V35.75H237.73V35.65C239.75 34.44 240.01 32.26 240.01 29.58V16.43C240.01 14.81 239.4 13.24 237.73 13.24C236.82 13.24 235.61 13.59 234.04 14.71V29.58C234.04 32.26 234.19 34.43 236.27 35.65V35.75H224.18V35.65C226.76 34.28 226.86 32.26 226.86 29.58V16.63C226.86 13.95 226.76 11.93 224.18 10.56V10.46H234.04V13.09C236.06 11.83 239.4 10.16 242.64 10.16C245.88 10.16 247.19 12.13 247.19 14.36V29.58C247.19 32.26 247.29 34.28 249.87 35.65Z" fill="white"/>
<path d="M275.21 35.65V35.75H263.48C256.2 35.75 250.89 32.11 250.89 23.87C250.89 14.36 258.02 10.47 264.19 10.47H265.35V6.53C265.35 3.85 265.25 1.83 262.67 0.460001V0.360001H272.53V29.59C272.53 32.27 272.63 34.29 275.21 35.66V35.65ZM265.34 34.28V11.93H263.92C260.78 11.93 258.26 12.94 258.26 20.17C258.26 28.11 261.45 34.28 265.24 34.28H265.34Z" fill="white"/>
<path d="M297.25 27.31L297.35 27.36C296.09 31.46 292.65 36.21 287.29 36.21C281.93 36.21 276.27 32.11 276.27 23.16C276.27 14.21 282.59 10.01 287.95 10.01C293.31 10.01 297.51 14.11 297.76 21.74H282.99C283.5 28.21 287.24 30.54 290.52 30.54C292.64 30.54 295.17 29.33 297.25 27.3V27.31ZM282.94 20.02H291.08C290.73 14.91 289.01 11.42 286.93 11.42C285.26 11.42 282.99 14.05 282.93 20.02H282.94Z" fill="white"/>
<path d="M308.53 29.58C308.53 32.26 308.63 34.28 311.21 35.65V35.75H298.67V35.65C301.25 34.28 301.35 32.26 301.35 29.58V16.63C301.35 13.95 301.25 11.93 298.67 10.56V10.46H308.53V29.58Z" fill="white"/>
</g>
<defs>
<clipPath id="clip0_1_19">
<rect width="318.09" height="45.41" fill="white"/>
</clipPath>
</defs>
</svg>
