<?xml version="1.0" encoding="UTF-8"?>
<svg id="Layer_1" xmlns="http://www.w3.org/2000/svg" version="1.1" viewBox="0 0 60 60">
  <!-- Generator: Adobe Illustrator 29.8.0, SVG Export Plug-In . SVG Version: 2.1.1 Build 160)  -->
  <g id="X8ewqA.tif">
    <path d="M59.62,27.7v4.85l-.5,3.25c-2,10.44-9.87,19.3-20.03,22.49-1.57.49-3.19.81-4.8,1.15h-.69v-23.2h7l1.1-8.19h-8.1v-6.41c0-.62.59-1.74,1.1-2.13.48-.37,1.72-.81,2.31-.81h5.03v-7.27l-4.33-.35c-3.41-.1-6.74.19-9.38,2.54-4.14,3.69-3.04,9.46-3.18,14.43h-7.17v8.19h7.17v22.97c-1.37-.09-2.83-.48-4.14-.89C10.66,55.04,2.63,45.96.79,35.23c-.15-.89-.18-1.8-.38-2.68.08-1.59-.1-3.27,0-4.85C1.3,14.2,12.45,2.66,25.81.83c16.66-2.28,32.7,9.97,33.81,26.88Z"/>
  </g>
</svg>