<?xml version="1.0" encoding="UTF-8"?>
<svg id="Layer_1" xmlns="http://www.w3.org/2000/svg" version="1.1" viewBox="0 0 60 60">
  <!-- Generator: Adobe Illustrator 30.1.0, SVG Export Plug-In . SVG Version: 2.1.1 Build 136)  -->
  <defs>
    <style>
      .st0 {
        fill: none;
        stroke: #000;
        stroke-miterlimit: 10;
        stroke-width: 6px;
      }
    </style>
  </defs>
  <circle class="st0" cx="30" cy="30" r="25.16"/>
  <g>
    <path d="M36.24,37.72c2.04.53-3.06,9.54-7.85,7.21-.88-.43-2.06-1.54-2.07-2.86l-.05-11.63c-1.08.46-1.6,1.93-2.6,1.46-1.24-.58.79-5.35,4.54-7.13,1.23-.58,2.54-.56,3.74.15.94.55,1.74,1.73,1.74,3.08l.03,11.2c1.33-.58,1.44-1.77,2.52-1.49Z"/>
    <path d="M28.22,14.77c2.24-.46,4.2,1,4.64,2.98.48,2.16-.9,4.22-2.91,4.67-2.16.49-4.17-.8-4.7-2.78-.58-2.15.68-4.4,2.97-4.87Z"/>
  </g>
</svg>