<?xml version="1.0" encoding="UTF-8"?>
<svg id="Layer_1" xmlns="http://www.w3.org/2000/svg" version="1.1" viewBox="0 0 60 60">
  <!-- Generator: Adobe Illustrator 29.8.0, SVG Export Plug-In . SVG Version: 2.1.1 Build 160)  -->
  <defs>
    <style>
      .st0 {
        fill: #fff;
      }
    </style>
  </defs>
  <g id="dew3bh">
    <path class="st0" d="M20.59,8.86c6.97-.27,13.71-.02,20.61.32,10.12.49,17.31-1.5,18.43,11.21.5,5.67.79,20.42-1.37,25.3-2.64,5.92-11.75,4.7-17.06,4.96-9.4.46-23.81,1.31-32.91-.52-2.86-.58-5.31-1.63-6.56-4.45C-.44,40.81-.14,26.06.36,20.39c.24-2.67.96-6.6,2.94-8.49,3.21-3.07,12.84-2.87,17.29-3.04ZM24.07,21.44v16.94l14.83-8.68s-14.83-8.26-14.83-8.26Z"/>
  </g>
</svg>