<?xml version="1.0" encoding="UTF-8"?>
<svg id="Layer_1" xmlns="http://www.w3.org/2000/svg" version="1.1" viewBox="0 0 60 60">
  <!-- Generator: Adobe Illustrator 29.8.0, SVG Export Plug-In . SVG Version: 2.1.1 Build 160)  -->
  <g id="zAUp6N.tif">
    <g>
      <path d="M36.76.12c.06.09.22.06.31.06,6.3.07,12.5-.02,17.4,4.53s5.27,10.15,5.35,16.46c0,.1-.04.25.06.31v17.03c-.09.06-.06.22-.06.31-.06,5.72-.35,11.05-4.38,15.5s-9.55,5.49-15.24,5.44l-1.45.12h-17.32l-1.56-.12c-4.77,0-9.72-.73-13.5-3.82C.2,50.91.28,43.89.19,36.55c0-.1.04-.25-.06-.31.05-4.16-.07-8.32,0-12.47.13-7.7.07-15.3,6.96-20.24C11.82.13,17.79.21,23.38.12h13.39ZM25.46,5.57c-4.48.05-11.12-.38-14.94,2.18-5.25,3.53-4.76,9.93-4.85,15.54s-.12,10.99.06,16.46c.13,3.96.18,7.94,3.04,11.02,3.14,3.39,7.42,3.47,11.74,3.59,6.38.18,12.81.18,19.19,0,4.45-.13,8.69-.24,11.85-3.81,2.85-3.23,2.78-7.76,2.87-11.82.14-5.78.14-11.65,0-17.42-.11-4.64-.02-9.31-3.73-12.68-3.12-2.83-7.25-2.85-11.22-2.96-4.66-.12-9.34-.14-14.01-.09Z"/>
      <path d="M29.17,14.67c11.88-.68,20.09,11.97,14.45,22.54-5.36,10.06-19.51,10.99-26.11,1.67-6.97-9.86-.33-23.53,11.65-24.21ZM29.63,20.08c-7.84.38-12.19,9.2-7.67,15.66s14.58,5.17,17.36-2.21c2.5-6.63-2.6-13.8-9.7-13.46Z"/>
      <path d="M45.96,10.46c4.57-.09,4.88,6.86.34,7.21-4.92.38-5.3-7.11-.34-7.21Z"/>
    </g>
  </g>
</svg>